# Blender 4.0.1
# www.blender.org
mtllib Cap2NoSpots.mtl
o Cap2NoSpots
v -0.038718 0.006512 0.144010
v -0.011129 0.161867 0.024668
v -0.140848 -0.001339 -0.008626
v -0.030580 0.158353 -0.026575
v 0.126686 0.002556 0.033868
v 0.054096 0.161335 -0.005171
v 0.038364 -0.001249 -0.142021
v 0.018589 0.154424 -0.043221
v -0.044052 0.069194 0.165903
v -0.028236 0.125218 0.113450
v -0.114892 0.120779 -0.032360
v -0.164502 0.065104 -0.027949
v 0.031131 0.113055 -0.114696
v 0.043167 0.059160 -0.161243
v 0.115551 0.118673 0.043998
v 0.145373 0.048290 0.035966
vn -0.4743 0.8422 0.2563
vn -0.2939 0.7507 -0.5917
vn 0.7169 0.5699 -0.4015
vn 0.2379 0.8808 0.4094
vn 0.0071 -0.9989 0.0466
vn -0.0520 0.9900 -0.1313
vn 0.5318 -0.2544 0.8078
vn 0.5276 0.4964 0.6893
vn 0.8473 -0.3270 -0.4184
vn 0.7801 0.4996 -0.3767
vn -0.5452 -0.4072 -0.7328
vn -0.4927 0.3769 -0.7844
vn -0.7966 -0.2586 0.5463
vn -0.6930 0.5872 0.4182
vn -0.4106 0.9070 0.0937
vn -0.1052 0.8526 -0.5119
vn 0.3034 0.8468 -0.4369
vn 0.2207 0.8562 0.4671
vn 0.0121 -0.9998 0.0156
vn 0.0500 0.9949 -0.0872
vn 0.5313 -0.2387 0.8129
vn 0.4365 0.0827 0.8959
vn 0.8623 -0.2145 -0.4587
vn 0.8063 0.3922 -0.4428
vn -0.5316 -0.2182 -0.8184
vn -0.3874 0.5515 -0.7388
vn -0.8389 -0.1462 0.5243
vn -0.6748 0.6315 0.3818
vt 0.625000 0.000000
vt 0.541667 0.250000
vt 0.541667 0.000000
vt 0.625000 0.250000
vt 0.541667 0.500000
vt 0.625000 0.750000
vt 0.541667 0.750000
vt 0.625000 1.000000
vt 0.541667 1.000000
vt 0.125000 0.500000
vt 0.375000 0.750000
vt 0.125000 0.750000
vt 0.625000 0.500000
vt 0.875000 0.750000
vt 0.458333 0.750000
vt 0.375000 1.000000
vt 0.458333 1.000000
vt 0.375000 0.500000
vt 0.458333 0.500000
vt 0.458333 0.250000
vt 0.375000 0.250000
vt 0.458333 0.000000
vt 0.375000 0.000000
vt 0.875000 0.500000
s 0
usemtl Cap
f 2/1/1 11/2/1 10/3/1
f 4/4/2 13/5/2 11/2/2
f 13/5/3 6/6/3 15/7/3
f 15/7/4 2/8/4 10/9/4
f 8/13/6 2/14/6 6/6/6
f 16/15/7 1/16/7 5/11/7
f 16/15/8 10/9/8 9/17/8
f 7/18/9 16/15/9 5/11/9
f 13/5/10 16/15/10 14/19/10
f 12/20/11 7/18/11 3/21/11
f 11/2/12 14/19/12 12/20/12
f 9/22/13 3/21/13 1/23/13
f 10/3/14 12/20/14 9/22/14
f 2/1/15 4/4/15 11/2/15
f 4/4/16 8/13/16 13/5/16
f 13/5/17 8/13/17 6/6/17
f 15/7/18 6/6/18 2/8/18
f 8/13/20 4/24/20 2/14/20
f 16/15/21 9/17/21 1/16/21
f 16/15/22 15/7/22 10/9/22
f 7/18/23 14/19/23 16/15/23
f 13/5/24 15/7/24 16/15/24
f 12/20/25 14/19/25 7/18/25
f 11/2/26 13/5/26 14/19/26
f 9/22/27 12/20/27 3/21/27
f 10/3/28 11/2/28 12/20/28
usemtl Gills
f 3/10/5 5/11/5 1/12/5
f 3/10/19 7/18/19 5/11/19
