# Blender 4.0.1
# www.blender.org
mtllib Cap2.mtl
o Cap2
v -0.031217 0.010043 0.152317
v -0.025024 0.004710 -0.100892
v -0.064084 0.128653 -0.056460
v -0.127159 0.084268 0.048418
v 0.050556 0.165458 0.043684
v -0.003628 0.165398 0.032975
v -0.133347 0.002192 -0.000319
v -0.047023 0.112212 -0.071442
v -0.045079 0.033226 -0.097448
v 0.003997 0.077106 0.165675
v -0.109136 0.100550 0.066263
v 0.062738 0.151917 0.062206
v -0.023079 0.161884 -0.018269
v 0.028367 0.057901 0.151422
v 0.073209 0.169226 0.031540
v -0.084760 0.109968 -0.059500
v -0.005329 0.021418 -0.124560
v 0.134187 0.006088 0.042174
v 0.076908 0.130241 -0.067154
v -0.121856 0.103323 0.025676
v 0.061596 0.164867 0.003135
v 0.086790 0.096926 -0.082188
v -0.103833 0.119605 0.043522
v 0.085391 0.155685 0.050062
v -0.067699 0.093527 -0.074482
v 0.045864 0.002283 -0.133714
v 0.101675 0.124892 -0.039019
v 0.010690 0.102120 0.143417
v -0.025384 0.049935 -0.121117
v 0.026090 0.157955 -0.034915
v 0.111558 0.091576 -0.054053
v 0.035061 0.082915 0.129163
v -0.036551 0.072726 0.174209
v -0.020736 0.128749 0.121757
v -0.107392 0.124311 -0.024054
v -0.157001 0.068636 -0.019643
v 0.038632 0.116586 -0.106389
v 0.050668 0.062691 -0.152936
v 0.123052 0.122204 0.052304
v 0.152874 0.051821 0.044273
v -0.063682 0.121999 -0.048700
v -0.060916 0.123670 -0.047383
v -0.058539 0.121727 -0.051599
v 0.070994 0.118740 -0.045555
v 0.062860 0.121264 -0.056495
v 0.064231 0.118290 -0.058268
v 0.048158 0.151082 0.034752
v 0.052615 0.146221 0.041557
v 0.082670 0.139367 0.039922
v 0.074458 0.138774 0.044890
v 0.070451 0.152693 0.021267
v 0.060484 0.138401 0.053808
v -0.006817 0.069444 0.153813
v 0.023878 0.066057 0.132758
v 0.014549 0.052782 0.134693
v 0.011389 0.048220 0.135437
v -0.008120 0.070197 0.154268
v 0.026983 0.078309 0.121558
v -0.001841 0.094974 0.131618
v 0.084921 0.114185 -0.026306
v 0.091965 0.096645 -0.035842
v 0.075665 0.089816 -0.073746
v 0.081384 0.087946 -0.065843
v 0.096010 0.081640 -0.042255
v -0.031695 0.035613 -0.084627
v -0.034554 0.039072 -0.084564
v -0.013955 0.056283 -0.107125
v -0.004312 0.044616 -0.107338
v -0.015885 0.009786 -0.089703
v -0.004733 0.018916 -0.100368
v 0.006027 0.027726 -0.110657
v -0.080462 0.103210 -0.047190
v -0.067290 0.090625 -0.059422
v -0.044611 0.108419 -0.064533
v -0.058602 0.092754 -0.063274
v -0.063933 0.087606 -0.063695
v -0.113482 0.074554 0.043467
v -0.091216 0.087822 0.059777
v -0.108761 0.094022 0.020936
v -0.100376 0.099018 0.027078
v -0.086495 0.107290 0.037246
vn -0.4743 0.8422 0.2563
vn -0.2485 0.8188 -0.5175
vn 0.7169 0.5699 -0.4015
vn 0.2207 0.8562 0.4671
vn 0.2379 0.8808 0.4094
vn 0.0071 -0.9989 0.0466
vn -0.0520 0.9900 -0.1313
vn 0.5310 -0.2323 0.8149
vn 0.4036 0.4572 0.7925
vn 0.8473 -0.3270 -0.4184
vn 0.8242 0.3955 -0.4053
vn -0.5845 -0.2034 -0.7854
vn -0.5028 -0.4016 -0.7654
vn -0.4493 0.5244 -0.7233
vn -0.7966 -0.2586 0.5463
vn -0.6677 0.6268 0.4017
vn -0.8720 -0.1451 0.4675
vn 0.4690 -0.5213 0.7130
vn 0.8720 0.1451 -0.4675
vn -0.4690 0.5212 -0.7130
vn 0.1403 0.8410 0.5226
vn -0.1759 -0.6322 0.7545
vn 0.5980 0.5402 0.5921
vn 0.1759 0.6322 -0.7545
vn -0.5980 -0.5402 -0.5921
vn -0.7820 0.5554 0.2830
vn -0.1960 -0.7326 0.6519
vn 0.6724 0.3834 0.6331
vn 0.1960 0.7326 -0.6519
vn -0.7137 0.5624 0.4174
vn 0.7137 -0.5624 -0.4174
vn 0.6541 -0.1413 0.7431
vn 0.7099 0.4537 -0.5387
vn -0.6541 0.1413 -0.7431
vn -0.2610 0.8799 0.3971
vn 0.2610 -0.8799 -0.3971
vn -0.5622 -0.4770 0.6756
vn -0.5725 0.8140 0.0983
vn 0.5622 0.4770 -0.6756
vn 0.5725 -0.8140 -0.0983
vn -0.5968 -0.3315 -0.7307
vn 0.7375 0.6665 0.1084
vn 0.6086 -0.5865 -0.5344
vn -0.7375 -0.6665 -0.1084
vn -0.6086 0.5865 0.5344
vn -0.2926 0.4602 -0.8382
vn -0.4106 0.9070 0.0937
vn -0.2136 0.5983 -0.7723
vn 0.3034 0.8468 -0.4369
vn 0.2428 0.8744 0.4202
vn -0.4689 0.5213 -0.7130
vn 0.8720 0.1450 -0.4675
vn 0.1673 0.9284 0.3318
vn 0.2262 0.8721 0.4340
vn 0.0121 -0.9998 0.0156
vn 0.0500 0.9949 -0.0872
vn 0.5291 -0.2486 0.8113
vn 0.5318 -0.2544 0.8078
vn 0.5281 -0.2530 0.8106
vn 0.5344 -0.2378 0.8111
vn 0.5307 -0.2347 0.8144
vn 0.5705 0.1496 0.8076
vn 0.5276 0.4965 0.6893
vn 0.5276 0.4964 0.6893
vn 0.2554 0.6163 0.7450
vn 0.4641 0.2995 0.8336
vn 0.8623 -0.2145 -0.4587
vn 0.7441 0.5241 -0.4144
vn 0.8109 0.3931 -0.4334
vn 0.8072 0.4577 -0.3727
vn 0.5622 0.4769 -0.6756
vn -0.5794 -0.2323 -0.7812
vn -0.4493 0.3347 -0.8283
vn -0.4203 0.5375 -0.7310
vn -0.4950 0.4291 -0.7555
vn -0.8389 -0.1462 0.5243
vn -0.7090 0.5782 0.4038
vn 0.4690 -0.5212 0.7130
vn -0.4690 0.5213 -0.7130
vt 0.625000 0.000000
vt 0.541667 0.250000
vt 0.541667 0.000000
vt 0.625000 0.500000
vt 0.541667 0.333638
vt 0.545696 0.324159
vt 0.546798 0.575466
vt 0.625000 0.750000
vt 0.541667 0.595836
vt 0.541667 0.750000
vt 0.601093 0.772030
vt 0.574965 0.784611
vt 0.625000 1.000000
vt 0.541667 1.000000
vt 0.571420 0.838142
vt 0.125000 0.500000
vt 0.375000 0.750000
vt 0.125000 0.750000
vt 0.875000 0.750000
vt 0.375000 1.000000
vt 0.458333 0.750000
vt 0.431053 0.936524
vt 0.495999 0.959124
vt 0.375000 0.500000
vt 0.458333 0.500000
vt 0.490490 0.627216
vt 0.408630 0.444481
vt 0.396751 0.429934
vt 0.375000 0.250000
vt 0.458333 0.250000
vt 0.422422 0.391680
vt 0.492363 0.347137
vt 0.458333 0.000000
vt 0.375000 0.000000
vt 0.484660 0.136341
vt 0.465218 0.166286
vt 0.495100 0.188557
vt 0.538606 0.091194
vt 0.529661 0.250000
vt 0.552640 0.407910
vt 0.561734 0.500000
vt 0.564190 0.750000
vt 0.539503 1.000000
vt 0.520079 0.000000
vt 0.565085 0.250000
vt 0.558921 0.500000
vt 0.530862 0.655862
vt 0.513914 0.750000
vt 0.520079 1.000000
vt 0.386300 0.120267
vt 0.625000 0.065141
vt 0.625000 0.250000
vt 0.625000 0.587956
vt 0.375000 0.636444
vt 0.125000 0.631925
vt 0.875000 0.500000
vt 0.842450 0.659950
vt 0.748623 0.585721
vt 0.514042 0.358571
vt 0.375000 0.344183
vt 0.399288 0.876828
vt 0.625000 0.853471
vt 0.244348 0.750000
vt 0.236005 0.658839
vt 0.769601 0.500000
vt 0.735379 0.684777
vt 0.484276 0.000000
vt 0.504506 0.218179
vt 0.500841 0.250000
vt 0.511653 0.500000
vt 0.524014 0.607322
vt 0.497767 0.872767
vt 0.484276 1.000000
vt 0.454232 0.043158
vt 0.489759 0.500000
vt 0.448504 0.250000
vt 0.500556 0.554376
vt 0.461372 0.970594
vt 0.505973 0.750000
vt 0.541667 0.324833
vt 0.541667 0.500000
vt 0.541667 0.575809
vt 0.573676 0.804424
vt 0.588053 0.839731
vt 0.597577 0.841157
vt 0.458333 0.960757
vt 0.458333 1.000000
vt 0.458333 0.920246
vt 0.437914 0.932216
vt 0.459214 0.962566
vt 0.476555 0.915424
vt 0.534315 0.629972
vt 0.500656 0.578127
vt 0.510044 0.627891
vt 0.497937 0.591083
vt 0.384728 0.414303
vt 0.430582 0.430787
vt 0.446754 0.420771
vt 0.417696 0.394517
vt 0.523911 0.363628
vt 0.513761 0.312244
vt 0.500687 0.350723
vt 0.496981 0.339914
vt 0.502421 0.177263
vt 0.514570 0.156929
vt 0.539503 0.000000
vt 0.375000 0.118075
vt 0.875000 0.684859
vt 0.625000 0.355399
vt 0.375000 0.880652
vt 0.219183 0.500000
vt 0.728472 0.750000
vt 0.510784 0.750000
vt 0.471571 0.000000
vt 0.471572 1.000000
s 0
usemtl Cap
f 6/1/1 35/2/1 34/3/1
f 30/4/2 43/5/2 42/6/2
f 45/7/3 21/8/3 44/9/3
f 39/10/4 51/11/4 49/12/4
f 6/13/5 34/14/5 52/15/5
f 30/4/7 6/19/7 21/8/7
f 1/20/8 40/21/8 56/22/8
f 39/10/9 34/14/9 59/23/9
f 26/24/10 40/21/10 18/17/10
f 40/21/11 38/25/11 64/26/11
f 71/27/12 26/24/12 70/28/12
f 7/29/13 36/30/13 66/31/13
f 38/25/14 36/30/14 76/32/14
f 33/33/15 7/29/15 1/34/15
f 33/33/16 78/35/16 77/36/16
f 79/37/16 35/2/16 36/30/16
f 6/1/47 13/52/47 35/2/47
f 42/6/2 41/80/2 35/2/2
f 35/2/48 13/52/48 30/4/48
f 30/4/2 37/81/2 43/5/2
f 42/6/2 35/2/2 30/4/2
f 45/7/3 46/82/3 37/81/3
f 37/81/49 30/4/49 21/8/49
f 21/8/3 39/10/3 44/9/3
f 45/7/3 37/81/3 21/8/3
f 39/10/4 21/8/4 51/11/4
f 51/11/4 21/8/4 6/13/4
f 34/14/50 39/10/50 49/12/50
f 49/12/51 50/83/51 52/15/51
f 52/15/52 48/84/52 47/85/52
f 47/85/4 51/11/4 6/13/4
f 34/14/53 49/12/53 52/15/53
f 52/15/54 47/85/54 6/13/54
f 30/4/56 13/56/56 6/19/56
f 56/22/57 53/86/57 33/87/57
f 1/20/58 18/17/58 40/21/58
f 40/21/59 54/88/59 55/89/59
f 56/22/60 33/87/60 1/20/60
f 40/21/61 55/89/61 56/22/61
f 54/88/62 40/21/62 39/10/62
f 33/87/63 53/86/63 57/90/63
f 33/87/64 57/90/64 59/23/64
f 58/91/65 54/88/65 39/10/65
f 34/14/64 33/87/64 59/23/64
f 59/23/66 58/91/66 39/10/66
f 26/24/67 38/25/67 40/21/67
f 60/92/68 44/9/68 39/10/68
f 38/25/68 37/81/68 46/82/68
f 38/25/68 46/82/68 62/93/68
f 60/92/69 39/10/69 40/21/69
f 64/26/32 61/94/32 60/92/32
f 38/25/68 62/93/68 63/95/68
f 64/26/70 60/92/70 40/21/70
f 38/25/11 63/95/11 64/26/11
f 71/27/12 38/25/12 26/24/12
f 69/96/12 70/28/12 26/24/12
f 38/25/12 71/27/12 68/97/12
f 38/25/13 68/97/13 67/98/13
f 69/96/12 26/24/12 7/29/12
f 66/31/71 65/99/71 69/96/71
f 36/30/13 38/25/13 67/98/13
f 66/31/72 69/96/72 7/29/72
f 36/30/13 67/98/13 66/31/13
f 74/100/73 43/5/73 37/81/73
f 36/30/73 35/2/73 41/80/73
f 36/30/73 41/80/73 72/101/73
f 74/100/74 37/81/74 38/25/74
f 76/32/45 75/102/45 74/100/45
f 36/30/73 72/101/73 73/103/73
f 76/32/75 74/100/75 38/25/75
f 36/30/14 73/103/14 76/32/14
f 33/33/76 36/30/76 7/29/76
f 33/33/77 34/3/77 35/2/77
f 35/2/16 80/104/16 81/105/16
f 33/33/16 35/2/16 81/105/16
f 77/36/16 79/37/16 36/30/16
f 33/33/16 81/105/16 78/35/16
f 77/36/16 36/30/16 33/33/16
f 79/37/16 80/104/16 35/2/16
usemtl Gills
f 7/16/6 18/17/6 1/18/6
f 7/16/55 26/24/55 18/17/55
usemtl Spots
f 5/34/17 48/38/17 52/39/17
f 24/24/18 52/39/18 50/40/18
f 15/17/19 49/41/19 51/42/19
f 47/43/20 15/17/20 51/42/20
f 24/24/21 5/18/21 12/16/21
f 11/29/22 77/44/22 78/45/22
f 81/46/23 11/29/23 78/45/23
f 23/24/24 80/47/24 79/48/24
f 4/20/25 79/48/25 77/49/25
f 23/24/26 4/18/26 11/16/26
f 10/29/27 53/50/27 56/51/27
f 14/52/28 28/24/28 10/29/28
f 28/24/29 58/53/29 59/54/29
f 28/24/30 57/55/30 10/16/30
f 14/56/31 55/57/31 54/58/31
f 61/59/32 31/4/32 60/60/32
f 31/4/33 19/17/33 27/24/33
f 46/61/34 19/17/34 62/62/34
f 27/24/35 45/63/35 44/64/35
f 22/8/36 64/65/36 63/66/36
f 9/29/37 69/67/37 65/68/37
f 29/24/38 66/69/38 67/70/38
f 17/17/39 67/70/39 68/71/39
f 17/17/40 70/72/40 69/73/40
f 29/24/41 2/18/41 9/16/41
f 8/29/42 3/34/42 43/74/42
f 76/75/43 8/29/43 74/76/43
f 16/17/44 76/75/44 73/77/44
f 41/78/45 3/20/45 72/79/45
f 25/24/46 3/18/46 8/16/46
f 52/39/17 12/29/17 5/34/17
f 5/34/17 47/106/17 48/38/17
f 50/40/18 49/41/18 24/24/18
f 24/24/78 12/29/78 52/39/78
f 15/17/19 24/24/19 49/41/19
f 47/43/79 5/20/79 15/17/79
f 24/24/21 15/17/21 5/18/21
f 11/29/22 4/34/22 77/44/22
f 81/46/23 23/24/23 11/29/23
f 79/48/24 20/17/24 23/24/24
f 23/24/24 81/46/24 80/47/24
f 4/20/25 20/17/25 79/48/25
f 23/24/26 20/17/26 4/18/26
f 56/51/27 14/52/27 10/29/27
f 10/29/27 57/107/27 53/50/27
f 14/52/28 32/4/28 28/24/28
f 28/24/29 32/4/29 58/53/29
f 28/24/30 59/54/30 57/55/30
f 54/58/31 58/53/31 32/4/31
f 14/56/31 56/108/31 55/57/31
f 54/58/31 32/4/31 14/56/31
f 61/59/32 64/109/32 31/4/32
f 31/4/32 27/24/32 60/60/32
f 31/4/33 22/8/33 19/17/33
f 46/61/34 45/110/34 19/17/34
f 19/17/34 22/8/34 62/62/34
f 44/64/35 60/111/35 27/24/35
f 27/24/35 19/17/35 45/63/35
f 63/66/36 62/112/36 22/8/36
f 22/8/36 31/4/36 64/65/36
f 65/68/37 66/69/37 9/29/37
f 9/29/37 2/34/37 69/67/37
f 29/24/38 9/29/38 66/69/38
f 68/71/39 71/113/39 17/17/39
f 17/17/39 29/24/39 67/70/39
f 69/73/40 2/20/40 17/17/40
f 17/17/40 71/113/40 70/72/40
f 29/24/41 17/17/41 2/18/41
f 43/74/42 74/76/42 8/29/42
f 3/34/42 42/114/42 43/74/42
f 76/75/43 25/24/43 8/29/43
f 73/77/44 72/79/44 16/17/44
f 16/17/44 25/24/44 76/75/44
f 41/78/45 42/115/45 3/20/45
f 3/20/45 16/17/45 72/79/45
f 25/24/46 16/17/46 3/18/46
