# Blender 4.0.1
# www.blender.org
mtllib Cap3NoSpots.mtl
o Cap3NoSpots
v -0.053470 0.003339 0.110034
v -0.013071 0.113805 0.030054
v -0.109245 0.003339 -0.049834
v -0.028587 0.113805 -0.014419
v 0.102812 0.005697 0.053029
v 0.042855 0.116891 0.005057
v 0.050623 0.003339 -0.105609
v 0.013055 0.116068 -0.027782
v -0.064336 0.024701 0.132544
v -0.044183 0.043801 0.094506
v -0.093040 0.043801 -0.045531
v -0.131755 0.024701 -0.060700
v 0.044167 0.046063 -0.092235
v 0.059656 0.027508 -0.126602
v 0.085800 0.044093 0.035552
v 0.138717 0.026278 0.061939
vn -0.7652 0.5859 0.2670
vn -0.2695 0.5873 -0.7632
vn 0.8737 0.3988 -0.2785
vn 0.3444 0.5485 0.7620
vn 0.0134 -0.9999 -0.0047
vn -0.0472 0.9987 0.0178
vn 0.2751 -0.6275 0.7283
vn 0.1720 0.8408 0.5133
vn 0.5203 -0.8391 -0.1587
vn 0.3837 0.9103 -0.1550
vn -0.2702 -0.5718 -0.7746
vn -0.1961 0.8221 -0.5346
vn -0.7275 -0.6375 0.2538
vn -0.4889 0.8555 0.1706
vn -0.2771 0.5813 -0.7651
vn 0.5270 0.6904 -0.4955
vn 0.3240 0.5217 0.7892
vn 0.0047 -0.9999 0.0133
vn -0.0488 0.9987 0.0170
vn 0.2379 -0.7046 0.6686
vn 0.1483 0.9317 0.3316
vn 0.7601 -0.5641 -0.3224
vn 0.5728 0.8009 -0.1743
vn -0.2441 -0.6315 -0.7359
vn -0.1949 0.8237 -0.5325
vt 0.541667 0.000000
vt 0.625000 0.250000
vt 0.541667 0.250000
vt 0.541667 0.500000
vt 0.625000 0.750000
vt 0.541667 0.750000
vt 0.625000 1.000000
vt 0.541667 1.000000
vt 0.125000 0.500000
vt 0.375000 0.750000
vt 0.125000 0.750000
vt 0.625000 0.500000
vt 0.875000 0.750000
vt 0.458333 1.000000
vt 0.375000 1.000000
vt 0.458333 0.750000
vt 0.375000 0.500000
vt 0.458333 0.500000
vt 0.375000 0.250000
vt 0.458333 0.250000
vt 0.375000 0.000000
vt 0.458333 0.000000
vt 0.625000 0.000000
vt 0.875000 0.500000
s 0
usemtl Cap
f 10/1/1 4/2/1 11/3/1
f 4/2/2 13/4/2 11/3/2
f 13/4/3 6/5/3 15/6/3
f 15/6/4 2/7/4 10/8/4
f 8/12/6 2/13/6 6/5/6
f 5/10/7 9/14/7 1/15/7
f 16/16/8 10/8/8 9/14/8
f 7/17/9 16/16/9 5/10/9
f 14/18/10 15/6/10 16/16/10
f 3/19/11 14/18/11 7/17/11
f 11/3/12 14/18/12 12/20/12
f 1/21/13 12/20/13 3/19/13
f 10/1/14 12/20/14 9/22/14
f 10/1/1 2/23/1 4/2/1
f 4/2/15 8/12/15 13/4/15
f 13/4/16 8/12/16 6/5/16
f 15/6/17 6/5/17 2/7/17
f 8/12/19 4/24/19 2/13/19
f 5/10/20 16/16/20 9/14/20
f 16/16/21 15/6/21 10/8/21
f 7/17/22 14/18/22 16/16/22
f 14/18/23 13/4/23 15/6/23
f 3/19/24 12/20/24 14/18/24
f 11/3/25 13/4/25 14/18/25
f 1/21/13 9/22/13 12/20/13
f 10/1/14 11/3/14 12/20/14
usemtl Gills
f 3/9/5 5/10/5 1/11/5
f 3/9/18 7/17/18 5/10/18
