# Blender 4.0.1
# www.blender.org
mtllib Cap3.mtl
o Cap3
v -0.021352 0.079102 0.064907
v 0.072650 0.100092 0.033242
v -0.041576 0.000009 0.114077
v -0.097974 0.030399 -0.023305
v -0.001177 0.110475 0.034097
v -0.035330 0.082148 -0.035016
v -0.080629 0.048632 -0.018223
v -0.004749 0.070346 0.083642
v 0.077525 0.063076 -0.042180
v 0.060394 0.084617 0.054471
v -0.097351 0.000009 -0.045791
v -0.016693 0.110475 -0.010376
v -0.018034 0.091927 -0.041292
v 0.065080 0.077794 -0.034262
v 0.048793 0.116456 0.031398
v -0.040719 0.064092 0.075054
v 0.114706 0.002367 0.057072
v -0.096088 0.035594 -0.048377
v -0.033805 0.069080 -0.051174
v -0.078743 0.053827 -0.043295
v 0.054749 0.113561 0.009100
v 0.036537 0.100981 0.052626
v -0.024116 0.055336 0.093789
v 0.068023 0.064966 -0.060628
v 0.062517 0.000009 -0.101566
v -0.016508 0.078859 -0.057449
v 0.024949 0.112738 -0.023739
v 0.055578 0.079684 -0.052710
v -0.052442 0.021371 0.136588
v -0.032289 0.040470 0.098550
v -0.119861 0.021371 -0.056657
v 0.056061 0.042733 -0.088192
v 0.071550 0.024177 -0.122559
v 0.097693 0.040762 0.039595
v 0.150611 0.022948 0.065983
v -0.026495 0.053509 0.086546
v -0.017011 0.074847 0.066899
v -0.019571 0.074180 0.061028
v -0.035991 0.051033 0.064761
v -0.074176 0.048041 -0.038124
v -0.073430 0.040470 -0.019372
v -0.072688 0.041333 -0.019137
v -0.023667 0.079622 -0.031872
v -0.031163 0.077462 -0.030832
v -0.069799 0.040658 -0.045350
v -0.066869 0.042912 -0.044663
v -0.027113 0.061555 -0.044456
v -0.006369 0.067457 -0.047270
v -0.010439 0.083386 -0.033667
v 0.055465 0.074903 -0.044001
v 0.055599 0.067659 -0.053953
v 0.050331 0.074101 -0.050579
v 0.067567 0.052482 -0.038137
v 0.060232 0.072636 -0.032294
v 0.059774 0.056189 -0.057278
v 0.042186 0.105492 0.019591
v 0.032069 0.092201 0.032530
v 0.029509 0.088838 0.035803
v 0.065794 0.088715 0.020990
v 0.053182 0.072147 0.037120
v -0.021521 0.048170 0.088141
v 0.051777 0.070318 0.039072
v 0.000379 0.056181 0.072477
v 0.028166 0.087091 0.037668
v -0.094668 0.033799 -0.046786
v -0.093161 0.032903 -0.048715
v -0.095880 0.028474 -0.023546
vn -0.7652 0.5859 0.2670
vn -0.2661 0.5900 -0.7623
vn -0.2755 0.5907 -0.7584
vn 0.8737 0.3988 -0.2785
vn 0.5270 0.6904 -0.4955
vn 0.3240 0.5217 0.7892
vn 0.3444 0.5485 0.7620
vn 0.0134 -0.9999 -0.0047
vn -0.0472 0.9987 0.0178
vn 0.2751 -0.6275 0.7283
vn 0.1720 0.8408 0.5133
vn 0.5203 -0.8391 -0.1587
vn 0.3837 0.9103 -0.1550
vn -0.2702 -0.5718 -0.7746
vn -0.1957 0.8218 -0.5352
vn -0.7275 -0.6375 0.2538
vn -0.4889 0.8555 0.1706
vn 0.8230 -0.5645 0.0636
vn -0.4228 -0.5338 0.7323
vn -0.8230 0.5645 -0.0636
vn 0.4228 0.5338 -0.7323
vn 0.3794 0.6296 0.6780
vn 0.7302 0.5660 -0.3826
vn 0.6260 -0.3302 0.7064
vn -0.7302 -0.5660 0.3826
vn -0.6261 0.3302 -0.7064
vn -0.2735 0.7554 0.5954
vn 0.4560 -0.0907 0.8853
vn 0.6598 0.7021 -0.2679
vn -0.4560 0.0907 -0.8853
vn 0.5973 -0.7063 -0.3800
vn -0.5973 0.7063 0.3800
vn -0.0732 0.6272 0.7754
vn 0.8301 0.4693 -0.3012
vn 0.0732 -0.6272 -0.7754
vn -0.8301 -0.4693 0.3012
vn -0.5528 0.6216 -0.5550
vn -0.0735 -0.2023 0.9766
vn 0.0735 0.2023 -0.9766
vn -0.7336 0.6743 0.0845
vn -0.6756 -0.7102 -0.1980
vn 0.6756 0.7102 0.1980
vn -0.2771 0.5813 -0.7651
vn -0.2701 0.5844 -0.7652
vn -0.2712 0.5908 -0.7599
vn 0.1706 0.6647 -0.7274
vn -0.2711 0.5867 -0.7631
vn -0.2709 0.5854 -0.7641
vn 0.7806 0.5334 -0.3259
vn 0.3381 0.5497 0.7639
vn 0.8229 -0.5645 0.0637
vn 0.6467 0.2356 0.7255
vn 0.0047 -0.9999 0.0133
vn -0.0488 0.9987 0.0170
vn 0.2379 -0.7046 0.6686
vn 0.1483 0.9317 0.3316
vn 0.7601 -0.5641 -0.3224
vn 0.5728 0.8009 -0.1743
vn -0.2441 -0.6315 -0.7359
vn -0.1955 0.8234 -0.5327
vn 0.6261 -0.3302 0.7064
vt 0.542693 0.210202
vt 0.541667 0.000000
vt 0.554240 0.048982
vt 0.541667 0.500000
vt 0.572426 0.374164
vt 0.625000 0.250000
vt 0.550678 0.250000
vt 0.585182 0.293828
vt 0.625000 0.750000
vt 0.541667 0.750000
vt 0.553382 0.591398
vt 0.625000 0.500000
vt 0.577758 0.531222
vt 0.625000 1.000000
vt 0.616630 0.814608
vt 0.576240 0.822434
vt 0.596261 0.880667
vt 0.560177 0.943933
vt 0.125000 0.500000
vt 0.375000 0.750000
vt 0.125000 0.750000
vt 0.875000 0.750000
vt 0.458333 1.000000
vt 0.375000 1.000000
vt 0.458333 0.750000
vt 0.541667 1.000000
vt 0.375000 0.500000
vt 0.458333 0.500000
vt 0.375000 0.250000
vt 0.458333 0.250000
vt 0.508428 0.254800
vt 0.458333 0.000000
vt 0.375000 0.000000
vt 0.489324 0.211499
vt 0.570873 0.250000
vt 0.567756 0.224127
vt 0.565265 0.500000
vt 0.554795 0.570205
vt 0.525182 0.750000
vt 0.530842 1.000000
vt 0.405305 0.052130
vt 0.464421 0.500000
vt 0.551761 0.250000
vt 0.537963 0.750000
vt 0.422536 0.556589
vt 0.436416 1.000000
vt 0.625000 0.161845
vt 0.375000 0.068934
vt 0.375000 0.650005
vt 0.517274 0.597130
vt 0.125000 0.681066
vt 0.875000 0.500000
vt 0.625000 0.595415
vt 0.722091 0.569157
vt 0.534547 0.000000
vt 0.507872 0.090573
vt 0.460157 0.250000
vt 0.404935 0.500000
vt 0.479758 0.750000
vt 0.534547 1.000000
vt 0.625000 0.105410
vt 0.375000 0.027803
vt 0.588802 0.597952
vt 0.375000 0.711141
vt 0.357351 0.729387
vt 0.125000 0.722197
vt 0.875000 0.644590
vt 0.682306 0.683641
vt 0.581795 0.016332
vt 0.582589 0.000000
vt 0.625000 0.000000
vt 0.541667 0.210518
vt 0.557187 0.000000
vt 0.541667 0.270674
vt 0.544317 0.273438
vt 0.565874 0.330101
vt 0.591652 0.347159
vt 0.587550 0.311370
vt 0.577885 0.552385
vt 0.557042 0.546587
vt 0.575849 0.587380
vt 0.569658 0.537914
vt 0.602014 0.865417
vt 0.550784 0.984316
vt 0.557187 1.000000
vt 0.596681 0.760309
vt 0.582589 1.000000
vt 0.578337 0.817041
vt 0.598266 0.875602
vt 0.512560 0.250000
vt 0.530842 0.000000
vt 0.436416 0.000000
vt 0.875000 0.588155
vt 0.613702 0.105964
vt 0.625000 0.592386
s 0
usemtl Cap
f 42/1/1 30/2/1 39/3/1
f 32/4/2 48/5/2 12/6/2
f 40/7/3 12/6/3 44/8/3
f 21/9/4 34/10/4 53/11/4
f 32/4/5 27/12/5 52/13/5
f 5/14/6 56/15/6 21/9/6
f 62/16/7 64/17/7 63/18/7
f 27/12/9 5/22/9 21/9/9
f 17/20/10 29/23/10 3/24/10
f 35/25/11 30/26/11 29/23/11
f 25/27/12 35/25/12 17/20/12
f 33/28/13 34/10/13 35/25/13
f 11/29/14 33/28/14 25/27/14
f 32/4/15 31/30/15 66/31/15
f 29/32/16 11/29/16 3/33/16
f 31/30/17 30/2/17 67/34/17
f 38/69/1 37/70/1 5/71/1
f 5/71/1 12/6/1 40/7/1
f 42/1/1 41/72/1 30/2/1
f 5/71/1 40/7/1 42/1/1
f 39/3/1 38/69/1 5/71/1
f 30/2/1 36/73/1 39/3/1
f 39/3/1 5/71/1 42/1/1
f 12/6/43 27/12/43 32/4/43
f 32/4/44 45/74/44 46/75/44
f 46/75/44 47/76/44 48/5/44
f 49/77/45 43/78/45 12/6/45
f 32/4/44 46/75/44 48/5/44
f 48/5/46 49/77/46 12/6/46
f 47/76/47 46/75/47 40/7/47
f 12/6/3 43/78/3 44/8/3
f 44/8/48 47/76/48 40/7/48
f 50/79/5 27/12/5 21/9/5
f 32/4/4 55/80/4 53/11/4
f 54/81/4 50/79/4 21/9/4
f 34/10/4 32/4/4 53/11/4
f 53/11/4 54/81/4 21/9/4
f 52/13/30 51/82/30 55/80/30
f 27/12/5 50/79/5 52/13/5
f 52/13/49 55/80/49 32/4/49
f 5/14/6 57/83/6 56/15/6
f 61/84/7 36/85/7 30/26/7
f 21/9/6 56/15/6 59/86/6
f 34/10/6 21/9/6 59/86/6
f 61/84/7 30/26/7 34/10/7
f 5/14/7 37/87/7 63/18/7
f 63/18/7 61/84/7 34/10/7
f 34/10/6 59/86/6 60/88/6
f 34/10/7 60/88/7 62/16/7
f 57/83/50 5/14/50 63/18/50
f 64/17/51 58/89/51 57/83/51
f 63/18/7 34/10/7 62/16/7
f 64/17/52 57/83/52 63/18/52
f 27/12/54 12/52/54 5/22/54
f 17/20/55 35/25/55 29/23/55
f 35/25/56 34/10/56 30/26/56
f 25/27/57 33/28/57 35/25/57
f 33/28/58 32/4/58 34/10/58
f 11/29/59 31/30/59 33/28/59
f 66/31/15 45/74/15 32/4/15
f 32/4/60 33/28/60 31/30/60
f 31/30/15 65/90/15 66/31/15
f 29/32/16 31/30/16 11/29/16
f 67/34/17 65/90/17 31/30/17
f 31/30/17 29/32/17 30/2/17
f 30/2/17 41/72/17 67/34/17
usemtl Gills
f 11/19/8 17/20/8 3/21/8
f 11/19/53 25/27/53 17/20/53
usemtl Spots
f 2/33/18 62/35/18 60/36/18
f 10/29/19 64/37/19 62/35/19
f 15/20/20 57/38/20 64/37/20
f 56/39/21 2/24/21 59/40/21
f 15/20/22 10/19/22 2/21/22
f 1/33/23 8/29/23 37/41/23
f 8/29/24 61/42/24 63/43/24
f 23/27/25 39/44/25 36/45/25
f 16/20/26 38/46/26 39/44/26
f 1/21/27 23/27/27 8/19/27
f 9/29/28 54/47/28 53/48/28
f 28/12/29 9/29/29 24/27/29
f 28/12/30 55/49/30 51/50/30
f 55/49/31 9/19/31 53/51/31
f 14/52/32 52/53/32 50/54/32
f 13/6/33 44/55/33 43/56/33
f 26/12/34 49/57/34 48/58/34
f 26/12/35 47/59/35 19/9/35
f 44/60/36 19/9/36 47/59/36
f 6/22/37 26/12/37 19/9/37
f 42/61/38 4/33/38 67/62/38
f 20/9/39 45/63/39 66/64/39
f 7/14/40 18/20/40 4/24/40
f 18/20/41 65/65/41 67/66/41
f 20/9/42 42/67/42 40/68/42
f 60/36/18 59/91/18 2/33/18
f 2/33/18 10/29/18 62/35/18
f 10/29/19 22/27/19 64/37/19
f 64/37/20 22/27/20 15/20/20
f 15/20/20 56/39/20 57/38/20
f 56/39/21 15/20/21 2/24/21
f 15/20/22 22/27/22 10/19/22
f 37/41/23 38/92/23 1/33/23
f 8/29/23 63/43/23 37/41/23
f 8/29/61 23/27/61 61/42/61
f 23/27/25 16/20/25 39/44/25
f 36/45/25 61/42/25 23/27/25
f 16/20/26 1/24/26 38/46/26
f 1/21/27 16/20/27 23/27/27
f 9/29/28 14/6/28 54/47/28
f 28/12/29 14/6/29 9/29/29
f 51/50/30 52/53/30 28/12/30
f 28/12/30 24/27/30 55/49/30
f 55/49/31 24/27/31 9/19/31
f 50/54/32 54/93/32 14/52/32
f 14/52/32 28/12/32 52/53/32
f 43/56/33 49/57/33 13/6/33
f 13/6/33 6/71/33 44/55/33
f 26/12/34 13/6/34 49/57/34
f 26/12/35 48/58/35 47/59/35
f 44/60/36 6/14/36 19/9/36
f 6/22/37 13/52/37 26/12/37
f 67/62/38 41/94/38 42/61/38
f 42/61/38 7/71/38 4/33/38
f 66/64/39 18/20/39 20/9/39
f 20/9/39 46/95/39 45/63/39
f 7/14/40 20/9/40 18/20/40
f 67/66/41 4/21/41 18/20/41
f 18/20/41 66/64/41 65/65/41
f 20/9/42 7/22/42 42/67/42
f 40/68/42 46/95/42 20/9/42
