# Blender 4.0.1
# www.blender.org
mtllib Stem2.mtl
o Stem2
v -0.030911 0.281411 -0.021755
v -0.035597 0.003257 -0.024773
v 0.019409 0.275673 -0.039188
v 0.014087 0.003257 -0.030000
v -0.028786 0.275417 0.020488
v -0.030370 0.003257 0.024911
v 0.032264 0.273772 0.014400
v 0.019314 0.003257 0.019685
v -0.000136 0.169694 0.011436
v -0.051721 0.094016 -0.053246
v 0.003685 0.082822 -0.010615
v 0.059015 0.173345 0.043513
v 0.054274 0.167213 0.018457
v 0.006377 0.096525 -0.035844
v 0.007273 0.181261 0.059350
v -0.038177 0.102346 0.003182
vn 0.1158 0.9932 0.0074
vn 0.9554 0.1887 -0.2270
vn 0.3225 0.3418 0.8827
vn -0.0000 -1.0000 -0.0000
vn 0.0948 -0.4433 -0.8914
vn -0.9388 -0.2725 0.2109
vn -0.9930 -0.0553 0.1045
vn -0.8695 0.4741 0.1387
vn -0.1044 -0.0708 -0.9920
vn 0.2193 0.5432 -0.8105
vn 0.0972 0.3708 0.9236
vn -0.0015 -0.5793 0.8151
vn 0.9827 0.1537 -0.1034
vn 0.8700 -0.4663 -0.1604
vn 0.0405 0.9896 0.1384
vn 0.9564 0.1891 -0.2227
vn 0.1014 0.4125 0.9053
vn -0.3420 -0.3529 -0.8709
vn -0.9649 -0.2624 0.0113
vn -0.9648 -0.0944 0.2455
vn -0.8714 0.4902 0.0164
vn 0.2881 -0.2397 -0.9271
vn 0.1317 0.5462 -0.8272
vn 0.3985 0.2263 0.8888
vn 0.1574 -0.5759 0.8022
vn 0.9838 0.0910 0.1544
vn 0.8630 -0.5036 -0.0400
vt 0.625000 0.500000
vt 0.875000 0.750000
vt 0.625000 0.750000
vt 0.541667 0.750000
vt 0.625000 1.000000
vt 0.541667 1.000000
vt 0.625000 0.000000
vt 0.541667 0.250000
vt 0.541667 0.000000
vt 0.375000 0.500000
vt 0.125000 0.750000
vt 0.125000 0.500000
vt 0.541667 0.500000
vt 0.625000 0.250000
vt 0.458333 0.250000
vt 0.375000 0.250000
vt 0.458333 0.500000
vt 0.458333 0.750000
vt 0.375000 0.750000
vt 0.458333 0.000000
vt 0.375000 0.000000
vt 0.458333 1.000000
vt 0.375000 1.000000
vt 0.875000 0.500000
s 0
usemtl Stem
f 1/1/1 7/2/1 3/3/1
f 13/4/2 7/5/2 12/6/2
f 7/7/3 15/8/3 12/9/3
f 2/10/4 8/11/4 6/12/4
f 9/13/5 3/3/5 13/4/5
f 5/14/6 9/13/6 15/8/6
f 16/15/7 2/10/7 6/16/7
f 16/15/8 9/13/8 10/17/8
f 2/10/9 14/18/9 4/19/9
f 9/13/10 14/18/10 10/17/10
f 11/20/11 6/16/11 8/21/11
f 11/20/12 15/8/12 16/15/12
f 4/19/13 11/22/13 8/23/13
f 13/4/14 11/22/14 14/18/14
f 1/1/15 5/24/15 7/2/15
f 13/4/16 3/3/16 7/5/16
f 7/7/17 5/14/17 15/8/17
f 2/10/4 4/19/4 8/11/4
f 9/13/18 1/1/18 3/3/18
f 5/14/19 1/1/19 9/13/19
f 16/15/20 10/17/20 2/10/20
f 16/15/21 15/8/21 9/13/21
f 2/10/22 10/17/22 14/18/22
f 9/13/23 13/4/23 14/18/23
f 11/20/24 16/15/24 6/16/24
f 11/20/25 12/9/25 15/8/25
f 4/19/26 14/18/26 11/22/26
f 13/4/27 12/6/27 11/22/27
