# Blender 4.0.1
# www.blender.org
mtllib Cap1.mtl
o Cap1
v 0.255359 0.098969 -0.056472
v 0.332198 0.100611 0.006965
v 0.165004 -0.003414 0.110253
v 0.288970 0.100726 0.092436
v 0.229494 0.121662 0.048045
v 0.238393 0.085056 -0.068600
v 0.294414 0.115818 0.079692
v 0.349641 0.080320 0.020272
v 0.171756 0.083247 0.046503
v 0.167441 0.059058 -0.071353
v 0.237408 0.107578 -0.041236
v 0.165004 -0.003414 -0.059065
v 0.339694 0.089531 -0.019757
v 0.269450 0.102810 0.086565
v 0.229494 0.121662 0.000943
v 0.220442 0.093666 -0.053364
v 0.357136 0.069239 -0.006450
v 0.175297 0.096236 0.061949
v 0.274894 0.117903 0.073822
v 0.181786 0.074361 -0.059518
v 0.332091 0.002264 0.111082
v 0.211853 0.084846 0.119642
v 0.230432 0.066731 0.126598
v 0.151180 0.060613 -0.053655
v 0.290533 0.127905 0.042866
v 0.157454 0.073798 0.057728
v 0.175234 0.074066 0.080607
v 0.192735 0.069409 0.130503
v 0.334322 -0.003414 -0.059065
v 0.273214 0.126239 0.002043
v 0.211315 0.051294 0.137459
v 0.165525 0.075917 -0.041819
v 0.160995 0.086787 0.073174
v 0.147329 0.039804 0.127928
v 0.178887 0.078445 0.098652
v 0.178887 0.078445 -0.049664
v 0.147329 0.039804 -0.076740
v 0.323821 0.083022 -0.048564
v 0.349766 0.045482 -0.075911
v 0.326719 0.082179 0.109377
v 0.360868 0.043514 0.122341
v 0.187234 0.085572 0.068180
v 0.178887 0.078445 0.076088
v 0.178887 0.078445 0.051546
v 0.240045 0.095904 -0.031532
v 0.222711 0.083622 -0.045015
v 0.228718 0.080018 -0.049286
v 0.252891 0.080782 -0.049102
v 0.258559 0.084798 -0.044693
v 0.324939 0.082697 0.012357
v 0.324526 0.082816 -0.010114
v 0.319252 0.089990 0.007738
v 0.285488 0.109532 0.068433
v 0.276461 0.110813 0.066094
v 0.272925 0.104025 0.075442
v 0.296138 0.108019 0.071191
v 0.290367 0.096941 0.086445
v 0.270361 0.098691 0.082075
v 0.289983 0.096142 0.087440
v 0.206870 0.073073 0.102294
v 0.209343 0.075444 0.101861
v 0.212880 0.071920 0.103077
v 0.190180 0.059837 0.112400
v 0.194471 0.063241 0.109802
v 0.228424 0.059206 0.112367
v 0.209399 0.044118 0.123888
v 0.339792 0.061363 0.004273
v 0.335104 0.068394 0.021140
v 0.341164 0.059178 -0.006758
v 0.326996 0.079113 -0.018999
v 0.342738 0.057427 -0.005591
v 0.162291 0.058124 -0.063903
v 0.170862 0.053009 -0.067678
v 0.175707 0.074550 -0.052393
v 0.241715 0.070348 -0.056374
v 0.184723 0.069170 -0.056363
v 0.175401 0.074175 0.080477
v 0.175196 0.073925 0.080440
v 0.178147 0.077538 0.049839
v 0.167652 0.064687 0.063051
v 0.170148 0.067744 -0.036854
v 0.156558 0.051104 -0.047878
vn -0.6494 0.7604 -0.0000
vn -0.0302 0.7609 -0.6482
vn 0.7191 0.6906 -0.0772
vn -0.0581 0.7950 0.6038
vn -0.0351 0.8141 0.5797
vn 0.0168 -0.9997 0.0168
vn -0.1027 0.9947 0.0014
vn 0.0199 -0.3263 0.9450
vn -0.0295 0.4514 0.8918
vn 0.0106 0.5984 0.8012
vn 0.8972 -0.4412 -0.0172
vn 0.7789 0.6265 -0.0272
vn 0.0074 -0.3508 -0.9364
vn -0.0127 0.5819 -0.8131
vn -0.9256 -0.3785 -0.0000
vn -0.7745 0.6326 -0.0000
vn -0.1711 0.7577 -0.6298
vn -0.7160 0.3434 0.6077
vn 0.7160 -0.3434 -0.6077
vn 0.6768 0.5550 0.4838
vn -0.6768 -0.5550 -0.4838
vn 0.7723 0.6336 -0.0461
vn 0.2508 -0.3708 -0.8942
vn -0.2508 0.3708 0.8942
vn -0.5837 0.6790 -0.4453
vn 0.5837 -0.6790 0.4453
vn -0.1478 0.6686 0.7288
vn -0.9527 0.1017 -0.2865
vn 0.9527 -0.1017 0.2865
vn -0.2657 -0.7366 0.6219
vn 0.2657 0.7366 -0.6219
vn 0.6980 0.4612 -0.5478
vn 0.1728 0.6339 0.7538
vn -0.6980 -0.4612 0.5478
vn -0.1728 -0.6339 -0.7538
vn 0.6949 -0.6209 0.3627
vn -0.6950 0.6208 -0.3628
vn -0.7116 -0.5746 0.4043
vn 0.1238 0.4639 0.8772
vn 0.7116 0.5746 -0.4043
vn -0.6916 0.6743 -0.2589
vn 0.6916 -0.6743 0.2589
vn 0.6752 -0.0646 -0.7348
vn 0.5956 0.6354 0.4914
vn -0.6752 0.0646 0.7348
vn -0.5956 -0.6354 -0.4914
vn -0.4352 0.7695 -0.4675
vt 0.541667 0.038034
vt 0.541667 0.000000
vt 0.625000 0.000000
vt 0.625000 0.250000
vt 0.541667 0.250000
vt 0.541667 0.079401
vt 0.555410 0.041852
vt 0.625000 0.500000
vt 0.541667 0.500000
vt 0.541667 0.377651
vt 0.548933 0.388028
vt 0.571294 0.346212
vt 0.548928 0.322056
vt 0.541667 0.335955
vt 0.541667 0.560862
vt 0.625000 0.750000
vt 0.541667 0.750000
vt 0.541667 0.596431
vt 0.553734 0.588387
vt 0.595958 0.821288
vt 0.592789 0.797814
vt 0.625000 1.000000
vt 0.541667 1.000000
vt 0.568092 0.802821
vt 0.574254 0.843629
vt 0.583567 0.835538
vt 0.569460 0.801264
vt 0.589317 0.773468
vt 0.125000 0.500000
vt 0.375000 0.500000
vt 0.375000 0.750000
vt 0.125000 0.750000
vt 0.875000 0.500000
vt 0.875000 0.750000
vt 0.458333 0.750000
vt 0.458333 1.000000
vt 0.375000 1.000000
vt 0.501085 0.964773
vt 0.508560 0.961664
vt 0.530565 0.949915
vt 0.534762 0.946915
vt 0.528116 0.939597
vt 0.499460 0.910517
vt 0.465642 0.928898
vt 0.458333 0.500000
vt 0.533648 0.549140
vt 0.491426 0.579141
vt 0.487397 0.581771
vt 0.496489 0.593300
vt 0.511825 0.614741
vt 0.375000 0.250000
vt 0.458333 0.250000
vt 0.519573 0.360431
vt 0.497842 0.250000
vt 0.486015 0.267182
vt 0.520800 0.269617
vt 0.533268 0.250000
vt 0.375000 0.000000
vt 0.458333 0.000000
vt 0.532460 0.033500
vt 0.531920 0.033739
vt 0.511998 0.066949
vt 0.539711 0.082560
vt 0.518589 0.220666
vt 0.482704 0.222618
vt 0.375000 0.403655
vt 0.625000 0.382197
vt 0.625000 0.806413
vt 0.375000 0.813494
vt 0.456755 0.820511
vt 0.311506 0.750000
vt 0.278655 0.500000
vt 0.742803 0.500000
vt 0.681413 0.750000
vt 0.732144 0.581119
vt 0.375000 0.387554
vt 0.625000 0.405967
vt 0.603017 0.406405
vt 0.625000 0.842531
vt 0.375000 0.859759
vt 0.461402 0.856056
vt 0.262554 0.500000
vt 0.262304 0.583139
vt 0.265241 0.750000
vt 0.717531 0.750000
vt 0.717055 0.592179
vt 0.719033 0.500000
vt 0.625000 0.379370
vt 0.481587 0.345258
vt 0.375000 0.325167
vt 0.375000 0.916354
vt 0.390975 0.913342
vt 0.625000 0.857678
vt 0.200167 0.500000
vt 0.208646 0.750000
vt 0.745630 0.500000
vt 0.732678 0.750000
vt 0.739688 0.614688
vt 0.505826 0.024274
vt 0.512791 0.000000
vt 0.415423 0.250000
vt 0.375000 0.497096
vt 0.397202 0.414041
vt 0.445961 0.750000
vt 0.375000 0.502705
vt 0.512791 1.000000
vt 0.372096 0.500000
vt 0.375000 0.307967
vt 0.625000 0.356029
vt 0.625000 0.900964
vt 0.422803 0.939835
vt 0.375000 0.938617
vt 0.182967 0.500000
vt 0.186384 0.750000
vt 0.176833 0.719312
vt 0.181390 0.556390
vt 0.775964 0.750000
vt 0.768971 0.500000
vt 0.554961 0.250000
vt 0.543397 0.000000
vt 0.514744 0.500000
vt 0.619399 0.347078
vt 0.496727 0.750000
vt 0.543397 1.000000
vt 0.604658 0.907709
s 0
usemtl Cap
f 43/1/1 35/2/1 5/3/1 15/4/1 36/5/1 44/6/1 42/7/1
f 36/5/2 15/4/2 30/8/2 38/9/2 48/10/2 49/11/2 45/12/2 46/13/2 47/14/2
f 51/15/3 38/9/3 30/8/3 25/16/3 40/17/3 50/18/3 52/19/3
f 54/20/4 53/21/4 25/16/4 5/22/4 35/23/4 40/17/4 59/24/4 58/25/4 55/26/4
f 57/27/5 59/24/5 40/17/5 25/16/5 53/21/5 56/28/5
f 30/8/7 15/33/7 5/34/7 25/16/7
f 21/31/8 41/35/8 34/36/8 3/37/8
f 63/38/9 34/36/9 41/35/9 40/17/9 35/23/9 64/39/9 60/40/9 61/41/9 62/42/9 65/43/9 66/44/9
f 35/23/10 34/36/10 63/38/10 64/39/10
f 29/30/11 39/45/11 41/35/11 21/31/11
f 50/18/12 40/17/12 41/35/12 39/45/12 38/9/12 51/15/12 70/46/12 69/47/12 71/48/12 67/49/12 68/50/12
f 12/51/13 37/52/13 39/45/13 29/30/13
f 36/5/14 47/14/14 75/53/14 48/10/14 38/9/14 39/45/14 37/52/14 72/54/14 73/55/14 76/56/14 74/57/14
f 3/58/15 34/59/15 37/52/15 12/51/15
f 37/52/16 34/59/16 35/2/16 43/1/16 77/60/16 78/61/16 80/62/16 79/63/16 44/6/16 36/5/16 74/57/16 81/64/16 82/65/16 72/54/16
usemtl Gills
f 12/29/6 29/30/6 21/31/6 3/32/6
usemtl Spots
f 1/58/17 6/3/17 16/4/17 11/51/17
f 45/66/18 11/51/18 16/4/18 46/67/18
f 75/68/19 6/22/19 1/37/19 49/69/19 48/70/19
f 49/71/20 1/32/20 11/29/20 45/72/20
f 46/73/21 16/33/21 6/34/21 75/74/21 47/75/21
f 2/58/22 8/3/22 17/4/22 13/51/22
f 70/76/23 13/51/23 17/4/23 71/77/23 69/78/23
f 68/79/24 8/22/24 2/37/24 52/80/24 50/81/24
f 2/32/25 13/29/25 70/82/25 51/83/25 52/84/25
f 17/33/26 8/34/26 68/85/26 67/86/26 71/87/26
f 4/58/27 7/3/27 19/4/27 14/51/27
f 14/51/28 19/4/28 54/88/28 55/89/28 58/90/28
f 7/22/29 4/37/29 59/91/29 57/92/29 56/93/29
f 4/32/30 14/29/30 58/94/30 59/95/30
f 54/96/31 19/33/31 7/34/31 56/97/31 53/98/31
f 44/99/32 79/100/32 9/3/32 18/4/32 42/101/32
f 42/101/33 18/4/33 33/8/33 27/30/33 77/102/33 43/103/33
f 33/8/34 26/16/34 80/104/34 78/105/34 27/30/34
f 26/16/35 9/22/35 79/106/35 80/104/35
f 33/8/37 18/33/37 9/34/37 26/16/37
f 31/8/38 28/30/38 63/108/38 66/109/38
f 28/30/39 31/8/39 23/16/39 22/31/39
f 22/31/40 23/16/40 65/110/40 62/111/40 61/112/40
f 63/113/41 28/30/41 22/31/41 61/114/41 60/115/41 64/116/41
f 65/117/42 23/16/42 31/8/42 66/118/42
f 10/3/43 20/4/43 76/119/43 73/120/43
f 76/119/44 20/4/44 32/8/44 81/121/44 74/122/44
f 81/121/45 32/8/45 24/16/45 82/123/45
f 24/16/46 10/22/46 73/124/46 72/125/46 82/123/46
f 32/8/47 20/33/47 10/34/47 24/16/47
usemtl 
f 77/107/36 27/30/36 78/105/36
