# Blender 4.0.1
# www.blender.org
mtllib Cap3.mtl
o Cap3
v 0.189677 0.066030 0.590534
v 0.283679 0.087021 0.558870
v 0.169453 -0.013063 0.639705
v 0.113055 0.017328 0.502322
v 0.209852 0.097404 0.559725
v 0.175699 0.069077 0.490611
v 0.130400 0.035561 0.507405
v 0.206280 0.057274 0.609269
v 0.288554 0.050005 0.483448
v 0.271423 0.071545 0.580098
v 0.113678 -0.013063 0.479837
v 0.194336 0.097404 0.515252
v 0.192995 0.078855 0.484336
v 0.276109 0.064723 0.491365
v 0.259822 0.103385 0.557025
v 0.170310 0.051021 0.600682
v 0.325735 -0.010705 0.582700
v 0.114941 0.022522 0.477250
v 0.177224 0.056009 0.474454
v 0.132286 0.040755 0.482333
v 0.265778 0.100490 0.534728
v 0.247566 0.087909 0.578254
v 0.186913 0.042265 0.619417
v 0.279052 0.051895 0.465000
v 0.273546 -0.013063 0.424062
v 0.194521 0.065787 0.468178
v 0.235978 0.099666 0.501889
v 0.266607 0.066612 0.472918
v 0.158587 0.008299 0.662215
v 0.178740 0.027399 0.624177
v 0.091168 0.008299 0.468971
v 0.267090 0.029662 0.437436
v 0.282579 0.011106 0.403069
v 0.308723 0.027691 0.565223
v 0.361640 0.009876 0.591610
v 0.184534 0.040437 0.612173
v 0.194018 0.061776 0.592527
v 0.191459 0.061109 0.586655
v 0.175039 0.037961 0.590389
v 0.136853 0.034970 0.487504
v 0.137599 0.027399 0.506256
v 0.138341 0.028262 0.506490
v 0.187362 0.066551 0.493756
v 0.179866 0.064390 0.494795
v 0.141230 0.027586 0.480277
v 0.144161 0.029841 0.480965
v 0.183916 0.048484 0.481172
v 0.204660 0.054385 0.478357
v 0.200590 0.070314 0.491961
v 0.266494 0.061832 0.481626
v 0.266628 0.054587 0.471675
v 0.261360 0.061029 0.475048
v 0.278596 0.039410 0.487491
v 0.271261 0.059564 0.493334
v 0.270803 0.043118 0.468350
v 0.253215 0.092421 0.545218
v 0.243098 0.079130 0.558158
v 0.240538 0.075767 0.561431
v 0.276823 0.075644 0.546618
v 0.264211 0.059075 0.562747
v 0.189508 0.035099 0.613768
v 0.262806 0.057246 0.564699
v 0.211408 0.043110 0.598104
v 0.239195 0.074020 0.563296
v 0.116361 0.020728 0.478841
v 0.117868 0.019831 0.476913
v 0.115149 0.015402 0.502081
vn -0.7652 0.5859 0.2670
vn -0.2708 0.5853 -0.7642
vn -0.2733 0.5883 -0.7610
vn 0.8215 0.4662 -0.3283
vn 0.5927 0.6550 -0.4688
vn 0.3240 0.5217 0.7892
vn 0.3406 0.5436 0.7671
vn 0.0090 -1.0000 0.0043
vn -0.0479 0.9987 0.0174
vn 0.2542 -0.6725 0.6951
vn 0.1614 0.8895 0.4276
vn 0.6507 -0.7192 -0.2436
vn 0.4484 0.8790 -0.1622
vn -0.2566 -0.6040 -0.7546
vn -0.1956 0.8228 -0.5337
vn -0.7275 -0.6375 0.2538
vn -0.4889 0.8555 0.1706
vn 0.8230 -0.5645 0.0636
vn -0.4228 -0.5338 0.7323
vn -0.8230 0.5645 -0.0636
vn 0.4228 0.5338 -0.7323
vn 0.3794 0.6296 0.6780
vn 0.7302 0.5660 -0.3826
vn 0.6260 -0.3302 0.7064
vn -0.7302 -0.5660 0.3826
vn -0.6261 0.3302 -0.7064
vn -0.2735 0.7554 0.5954
vn 0.4560 -0.0907 0.8853
vn 0.6598 0.7021 -0.2679
vn -0.4560 0.0907 -0.8853
vn 0.5973 -0.7063 -0.3800
vn -0.5973 0.7063 0.3800
vn -0.0732 0.6272 0.7754
vn 0.8301 0.4693 -0.3012
vn 0.0732 -0.6272 -0.7754
vn -0.8301 -0.4693 0.3012
vn -0.5528 0.6216 -0.5550
vn -0.0735 -0.2023 0.9766
vn 0.0735 0.2023 -0.9766
vn -0.7336 0.6743 0.0845
vn -0.6756 -0.7102 -0.1980
vn 0.6756 0.7102 0.1980
vt 0.581795 0.016332
vt 0.582589 0.000000
vt 0.625000 0.000000
vt 0.625000 0.250000
vt 0.550678 0.250000
vt 0.542693 0.210202
vt 0.541667 0.210518
vt 0.541667 0.000000
vt 0.557187 0.000000
vt 0.554240 0.048982
vt 0.625000 0.500000
vt 0.541667 0.500000
vt 0.541667 0.270674
vt 0.544317 0.273438
vt 0.565874 0.330101
vt 0.572426 0.374164
vt 0.591652 0.347159
vt 0.587550 0.311370
vt 0.585182 0.293828
vt 0.625000 0.750000
vt 0.541667 0.750000
vt 0.557042 0.546587
vt 0.553382 0.591398
vt 0.575849 0.587380
vt 0.577885 0.552385
vt 0.569658 0.537914
vt 0.577758 0.531222
vt 0.625000 1.000000
vt 0.602014 0.865417
vt 0.616630 0.814608
vt 0.557187 1.000000
vt 0.541667 1.000000
vt 0.596681 0.760309
vt 0.578337 0.817041
vt 0.576240 0.822434
vt 0.596261 0.880667
vt 0.598266 0.875602
vt 0.582589 1.000000
vt 0.560177 0.943933
vt 0.550784 0.984316
vt 0.125000 0.500000
vt 0.375000 0.500000
vt 0.375000 0.750000
vt 0.125000 0.750000
vt 0.875000 0.500000
vt 0.875000 0.750000
vt 0.458333 0.750000
vt 0.458333 1.000000
vt 0.375000 1.000000
vt 0.458333 0.500000
vt 0.375000 0.250000
vt 0.458333 0.250000
vt 0.512560 0.250000
vt 0.508428 0.254800
vt 0.375000 0.000000
vt 0.458333 0.000000
vt 0.489324 0.211499
vt 0.530842 0.000000
vt 0.570873 0.250000
vt 0.567756 0.224127
vt 0.565265 0.500000
vt 0.525182 0.750000
vt 0.554795 0.570205
vt 0.562287 0.524717
vt 0.530842 1.000000
vt 0.436416 0.000000
vt 0.551761 0.250000
vt 0.405305 0.052130
vt 0.464421 0.500000
vt 0.537963 0.750000
vt 0.422536 0.556589
vt 0.436416 1.000000
vt 0.375000 0.068934
vt 0.625000 0.161845
vt 0.625000 0.595415
vt 0.375000 0.650005
vt 0.517274 0.597130
vt 0.125000 0.681066
vt 0.875000 0.588155
vt 0.722091 0.569157
vt 0.460157 0.250000
vt 0.534547 0.000000
vt 0.507872 0.090573
vt 0.404935 0.500000
vt 0.479758 0.750000
vt 0.534547 1.000000
vt 0.613702 0.105964
vt 0.625000 0.105410
vt 0.375000 0.027803
vt 0.625000 0.592386
vt 0.588802 0.597952
vt 0.375000 0.711141
vt 0.357351 0.729387
vt 0.125000 0.722197
vt 0.875000 0.644590
vt 0.682306 0.683641
s 0
usemtl Cap
f 38/1/1 37/2/1 5/3/1 12/4/1 40/5/1 42/6/1 41/7/1 30/8/1 36/9/1 39/10/1
f 27/11/2 32/12/2 45/13/2 46/14/2 47/15/2 48/16/2 49/17/2 43/18/2 12/4/2
f 46/14/3 40/5/3 12/4/3 43/18/3 44/19/3 47/15/3
f 27/11/4 21/20/4 34/21/4 32/12/4 55/22/4 53/23/4 54/24/4 50/25/4
f 51/26/5 55/22/5 32/12/5 27/11/5 50/25/5 52/27/5
f 5/28/6 57/29/6 56/30/6 21/20/6
f 36/31/7 30/32/7 34/21/7 21/20/7 56/30/7 59/33/7 60/34/7 62/35/7 64/36/7 58/37/7 57/29/7 5/28/7 37/38/7 63/39/7 61/40/7
f 27/11/9 12/45/9 5/46/9 21/20/9
f 17/43/10 35/47/10 29/48/10 3/49/10
f 35/47/11 34/21/11 30/32/11 29/48/11
f 25/42/12 33/50/12 35/47/12 17/43/12
f 33/50/13 32/12/13 34/21/13 35/47/13
f 11/51/14 31/52/14 33/50/14 25/42/14
f 45/13/15 32/12/15 33/50/15 31/52/15 65/53/15 66/54/15
f 3/55/16 29/56/16 31/52/16 11/51/16
f 65/53/17 31/52/17 29/56/17 30/8/17 41/7/17 67/57/17
usemtl Gills
f 11/41/8 25/42/8 17/43/8 3/44/8
usemtl Spots
f 59/58/18 2/55/18 10/51/18 62/59/18 60/60/18
f 62/59/19 10/51/19 22/42/19 64/61/19
f 22/42/20 15/43/20 56/62/20 57/63/20 58/64/20 64/61/20
f 56/62/21 15/43/21 2/49/21 59/65/21
f 2/44/22 15/43/22 22/42/22 10/41/22
f 38/66/23 1/55/23 8/51/23 63/67/23 37/68/23
f 63/67/24 8/51/24 23/42/24 61/69/24
f 23/42/25 16/43/25 39/70/25 36/71/25 61/69/25
f 16/43/26 1/49/26 38/72/26 39/70/26
f 1/44/27 16/43/27 23/42/27 8/41/27
f 53/73/28 9/51/28 14/4/28 54/74/28
f 24/42/29 28/11/29 14/4/29 9/51/29
f 52/75/30 28/11/30 24/42/30 55/76/30 51/77/30
f 55/76/31 24/42/31 9/41/31 53/78/31
f 54/79/32 14/45/32 28/11/32 52/75/32 50/80/32
f 49/81/33 13/4/33 6/3/33 44/82/33 43/83/33
f 48/84/34 26/11/34 13/4/34 49/81/34
f 19/20/35 26/11/35 48/84/35 47/85/35
f 44/86/36 6/28/36 19/20/36 47/85/36
f 19/20/37 6/46/37 13/45/37 26/11/37
f 41/87/38 42/88/38 7/3/38 4/55/38 67/89/38
f 18/43/39 20/20/39 46/90/39 45/91/39 66/92/39
f 4/49/40 7/28/40 20/20/40 18/43/40
f 4/44/41 18/43/41 66/92/41 65/93/41 67/94/41
f 20/20/42 7/46/42 42/95/42 40/96/42 46/90/42
