# Blender 4.0.1
# www.blender.org
mtllib CrystalSpearhead.mtl
o Spearhead
v -0.017277 0.000179 0.001126
v 0.015648 0.026428 -0.000736
v -0.000602 0.103962 0.000506
v -0.000345 0.075873 0.001329
v -0.017277 0.000179 -0.001126
v -0.000594 0.103962 -0.000666
v 0.017277 0.000179 0.001126
v 0.000578 0.103962 0.000506
v 0.017277 0.000179 -0.001126
v 0.016906 0.050401 -0.001783
v 0.000586 0.103962 -0.000666
v -0.020286 0.024054 0.003094
v -0.020286 0.023963 -0.002846
v 0.020960 0.023963 -0.002846
v 0.020960 0.024054 0.003094
v -0.012252 0.016322 -0.001188
v 0.012589 0.016322 -0.001188
v 0.012589 0.016347 0.001312
v -0.012252 0.016347 0.001312
v -0.014953 0.063277 0.001961
v -0.012550 0.070088 0.001717
v -0.008949 0.080297 0.001352
v -0.004750 0.092202 0.000926
v -0.006855 0.086233 0.001140
v -0.012571 0.070026 0.000801
v -0.008983 0.080192 -0.000186
v -0.006596 0.086956 -0.001250
v -0.014257 0.065248 -0.001997
v -0.004998 0.091483 -0.001095
v -0.011934 0.059340 -0.002200
v -0.003268 0.089152 -0.001175
v 0.009444 0.078876 -0.001528
v 0.007940 0.075231 -0.001653
v 0.011054 0.074315 -0.001685
v 0.015073 0.062933 -0.002076
v 0.014784 0.059340 -0.002200
v 0.013832 0.059737 -0.002186
v 0.015418 0.061956 0.002008
v 0.010542 0.075756 0.001514
v 0.009830 0.077772 0.001442
v -0.013506 0.059340 0.002101
v -0.006738 0.067110 0.001824
v 0.009190 0.076142 0.001501
v 0.014434 0.059340 0.002101
v -0.002466 0.071747 0.001658
v -0.000365 0.075898 0.001509
v -0.002438 0.089197 0.001034
v -0.012873 0.057632 0.002149
v 0.016565 0.057633 0.002149
v 0.014173 0.058646 0.002121
v -0.019210 0.033685 0.002823
v -0.020203 0.024802 0.003073
v -0.012947 0.034140 0.002810
v -0.013563 0.053421 0.002268
v -0.015113 0.027875 0.002986
v -0.018416 0.040783 0.002623
v -0.017329 0.050510 0.002350
v -0.016685 0.056275 0.002188
v 0.017612 0.049613 -0.001627
v 0.020162 0.030075 -0.002735
v 0.017597 0.049722 -0.002375
v 0.016432 0.058648 -0.002212
v 0.020107 0.030522 -0.000226
v -0.020011 0.026430 -0.002801
v -0.017345 0.028021 -0.002772
v -0.019487 0.031135 -0.002715
v -0.011370 0.057884 -0.002226
v -0.016717 0.055974 -0.002261
v 0.007085 0.035992 -0.002626
v 0.010970 0.044951 -0.002463
v 0.015984 0.026321 -0.002803
v 0.017001 0.050371 -0.002364
v -0.018378 0.041124 0.001282
v -0.017356 0.050273 0.001361
vn -0.9430 0.3329 -0.0028
vn -0.9430 0.3328 -0.0000
vn -0.0000 0.0344 -0.9994
vn 0.9429 0.3330 0.0001
vn 0.9430 0.3328 0.0064
vn -0.0000 0.0357 0.9994
vn -0.0000 -1.0000 -0.0000
vn -0.0000 1.0000 -0.0000
vn -0.0000 -0.2252 0.9743
vn 0.6750 -0.7378 0.0073
vn -0.0000 -0.2120 -0.9773
vn -0.6899 -0.7238 0.0071
vn -0.0000 0.0281 0.9996
vn 0.9916 0.1292 -0.0038
vn -0.0000 0.0183 -0.9998
vn -0.9938 0.1108 -0.0007
vn -0.9938 0.1108 -0.0017
vn -0.9548 0.2972 -0.0000
vn -0.0000 -0.0039 -1.0000
vn 0.9603 0.2789 -0.0000
vn -0.0000 -0.0115 0.9999
vn -0.8844 -0.3366 -0.3232
vn -0.3355 0.9401 -0.0611
vn 0.9217 -0.3523 -0.1621
vn 0.3802 0.9033 0.1988
vn -0.7858 -0.5459 0.2907
vn -0.5020 0.8375 0.2158
vn 0.2596 0.8954 -0.3617
vn 0.8978 -0.3618 -0.2513
vn -0.7616 -0.5754 0.2982
vn -0.5441 0.8177 0.1881
vn 0.6050 -0.7778 0.1702
vn 0.7567 0.6282 0.1810
vn -0.2477 0.0193 0.9686
vn 0.7340 0.6739 0.0841
vn 0.6600 -0.7370 0.1457
vn -0.7340 -0.6739 -0.0841
vn -0.6600 0.7370 -0.1457
vn 0.1601 -0.0514 -0.9858
vn -0.4560 -0.8872 0.0707
vn -0.8836 0.4418 -0.1550
vn 0.4560 0.8872 -0.0707
vn -0.1062 0.1331 0.9854
vn -0.9431 0.3324 -0.0064
vn -0.9431 0.3326 -0.0023
vn -0.9431 0.3327 -0.0003
vn -0.9426 0.3339 -0.0021
vn -0.9431 0.3325 -0.0020
vn 0.9429 0.3331 0.0008
vn 0.9429 0.3331 0.0011
vn 0.6760 -0.7368 0.0113
vn -0.6910 -0.7228 0.0110
vn 0.9915 0.1298 -0.0001
vn 0.9916 0.1295 -0.0020
vn 0.9915 0.1300 -0.0014
vn 0.9916 0.1294 -0.0000
vn 0.9916 0.1294 -0.0025
vn -0.9938 0.1111 -0.0000
vn -0.9938 0.1108 -0.0013
vn -0.9938 0.1111 -0.0002
vn -0.9938 0.1111 -0.0021
vn -0.9938 0.1110 -0.0017
vn -0.9549 0.2968 -0.0029
vn 0.9604 0.2785 -0.0027
vn 0.3802 0.9033 0.1990
vt 0.608180 -0.003211
vt 0.625000 0.250000
vt 0.607152 0.250000
vt 0.591004 0.133144
vt 0.600677 0.250000
vt 0.569629 0.250000
vt 0.561747 0.481201
vt 0.561179 0.283718
vt 0.603819 0.303050
vt 0.582598 0.500000
vt 0.564920 0.750000
vt 0.566319 0.500000
vt 0.625000 0.750000
vt 0.589121 0.500000
vt 0.625000 0.500000
vt 0.585211 0.765322
vt 0.603883 0.931788
vt 0.584861 0.883198
vt 0.375000 0.500000
vt 0.125000 0.750000
vt 0.125000 0.500000
vt 0.875000 0.500000
vt 0.436179 0.750000
vt 0.497357 1.024365
vt 0.436179 1.012182
vt 0.497357 0.500000
vt 0.436179 0.500000
vt 0.497357 0.250000
vt 0.436179 0.250000
vt 0.436179 -0.012182
vt 0.497357 0.750000
vt 0.559924 0.767807
vt 0.515600 0.977126
vt 0.543622 0.538244
vt 0.559932 0.500000
vt 0.504677 0.265909
vt 0.561179 0.488079
vt 0.535220 0.450427
vt 0.544791 0.038872
vt 0.555107 0.250000
vt 0.510295 0.250000
vt 0.498710 -0.024106
vt 0.501807 0.250000
vt 0.375000 0.000000
vt 0.375000 0.250000
vt 0.375000 0.750000
vt 0.375000 1.000000
vt 0.459079 0.474529
vt 0.532844 0.500000
vt 0.535941 0.401488
vt 0.486533 0.588152
vt 0.554887 0.562479
vt 0.431569 0.051828
vt 0.506208 0.011071
vt 0.508794 0.000000
vt 0.440485 1.000000
vt 0.515823 0.960788
vt 0.447226 0.957316
vt 0.562811 0.750000
vt 0.432093 0.680710
vt 0.446986 0.750000
vt 0.531212 0.856907
vt 0.429123 0.805412
vt 0.450360 0.191213
vt 0.500432 0.250000
vt 0.507811 0.224671
vt 0.464442 0.317673
vt 0.434564 0.250000
vt 0.501265 0.750000
vt 0.530952 0.677001
vt 0.491593 0.693464
vt 0.518014 0.850794
vt 0.475904 0.824587
vt 0.625000 0.399818
vt 0.625000 0.322987
vt 0.610347 0.394485
vt 0.625000 0.737029
vt 0.625000 0.599399
vt 0.605039 0.606607
vt 0.802013 0.500000
vt 0.725182 0.500000
vt 0.625000 0.000000
vt 0.594149 0.000000
vt 0.625000 0.190921
vt 0.625000 0.380999
vt 0.616328 0.500000
vt 0.614259 0.512805
vt 0.625000 1.000000
vt 0.588141 0.917560
vt 0.594149 1.000000
vt 0.875000 0.750000
vt 0.744001 0.500000
vt 0.625000 0.515728
vt 0.410565 0.027304
vt 0.379267 0.250000
vt 0.375000 0.358430
vt 0.396191 0.690421
vt 0.375000 0.539637
vt 0.375000 0.693502
vt 0.591153 -0.006461
vt 0.599643 -0.004840
vt 0.566811 -0.011107
vt 0.576552 -0.009248
vt 0.576464 0.057526
vt 0.583907 0.466865
vt 0.584658 0.750000
vt 0.587542 0.750000
vt 0.572292 0.942357
vt 0.576552 1.009248
vt 0.566811 1.011107
vt 0.561179 0.989429
vt 0.561179 0.765303
vt 0.578924 0.905337
vt 0.599643 1.004840
vt 0.591153 1.006461
vt 0.608180 1.003211
vt 0.497357 -0.024365
vt 0.527615 1.018589
vt 0.514777 1.021040
vt 0.504268 0.990434
vt 0.498710 1.024106
vt 0.555635 1.013240
vt 0.545208 1.015231
vt 0.550473 0.988267
vt 0.558090 0.984182
vt 0.558091 0.750000
vt 0.508384 0.500000
vt 0.509131 0.611188
vt 0.543828 0.500000
vt 0.501610 0.470911
vt 0.558553 0.288417
vt 0.544998 0.496478
vt 0.519057 0.419647
vt 0.514776 -0.021040
vt 0.527615 -0.018589
vt 0.528255 0.049592
vt 0.545208 -0.015231
vt 0.555635 -0.013240
vt 0.469295 0.371024
vt 0.456971 0.500000
vt 0.533939 0.470196
vt 0.440484 0.000000
vt 0.496154 0.052745
vt 0.442888 0.984377
vt 0.508794 1.000000
vt 0.529634 0.620864
vt 0.511653 0.280875
vt 0.547893 0.750000
vt 0.625000 0.910619
vt 0.785619 0.750000
vt 0.875000 0.559079
vt 0.375000 0.022146
vt 0.233430 0.500000
vt 0.125000 0.727854
s 0
usemtl Material.003
f 23/1/1 6/2/1 29/3/1
f 26/4/2 27/5/2 28/6/2
f 37/7/3 30/8/3 31/9/3
f 34/10/4 38/11/4 35/12/4
f 8/13/5 32/14/5 11/15/5
f 43/16/6 47/17/6 46/18/6
f 9/19/7 1/20/7 5/21/7
s 1
f 6/22/8 8/13/8 11/15/8
s 0
f 18/23/9 12/24/9 19/25/9
f 14/26/10 18/23/10 17/27/10
f 13/28/11 17/27/11 16/29/11
f 19/30/12 13/28/12 16/29/12
f 15/31/13 50/32/13 53/33/13
f 15/31/14 59/34/14 62/35/14
f 65/36/15 36/37/15 70/38/15
f 74/39/16 68/40/16 66/41/16
f 13/28/17 52/42/17 64/43/17
f 1/44/18 16/29/18 5/45/18
f 16/29/19 9/19/19 5/45/19
f 17/27/20 7/46/20 9/19/20
f 7/46/21 19/25/21 1/47/21
f 30/48/22 48/49/22 20/50/22
f 48/49/23 68/51/23 58/52/23
f 35/53/24 44/54/24 50/55/24
f 37/56/25 49/57/25 62/58/25
f 55/59/26 66/60/26 65/61/26
f 52/62/27 65/61/27 64/63/27
f 34/64/28 43/65/28 39/66/28
f 32/67/29 43/65/29 33/68/29
f 31/69/30 23/70/30 29/71/30
f 24/72/31 31/69/31 27/73/31
f 74/74/32 54/75/32 57/76/32
f 53/77/33 73/78/33 56/79/33
f 73/78/34 54/80/34 74/81/34
f 2/82/35 71/83/35 69/84/35
f 10/15/36 70/85/36 72/86/36
f 61/87/37 10/15/37 72/86/37
f 2/88/38 60/89/38 71/90/38
f 2/91/39 70/92/39 59/93/39
f 22/94/40 4/45/40 46/95/40
f 46/95/41 4/45/41 45/96/41
f 21/97/42 42/98/42 25/99/42
f 4/21/43 25/99/43 42/98/43
f 23/1/44 3/82/44 6/2/44
f 26/4/45 22/100/45 24/101/45
f 28/6/46 20/102/46 21/103/46
f 28/6/47 21/103/47 25/104/47
f 26/4/48 24/101/48 27/5/48
f 28/6/2 25/104/2 26/4/2
f 31/9/3 29/3/3 6/2/3
f 6/2/3 11/15/3 32/14/3
f 33/105/3 34/10/3 35/12/3
f 6/2/3 32/14/3 33/105/3
f 28/6/3 27/5/3 31/9/3
f 31/9/3 6/2/3 33/105/3
f 33/105/3 35/12/3 37/7/3
f 37/7/3 36/37/3 30/8/3
f 30/8/3 28/6/3 31/9/3
f 31/9/3 33/105/3 37/7/3
f 34/10/49 39/106/49 38/11/49
f 8/13/50 40/107/50 32/14/50
f 42/108/6 21/109/6 20/110/6
f 20/110/6 41/111/6 44/112/6
f 44/112/6 38/11/6 39/106/6
f 43/16/6 40/107/6 8/13/6
f 44/112/6 39/106/6 43/16/6
f 42/108/6 20/110/6 44/112/6
f 45/113/6 42/108/6 44/112/6
f 43/16/6 8/13/6 3/88/6
f 45/113/6 44/112/6 43/16/6
f 24/114/6 22/115/6 46/18/6
f 46/18/6 45/113/6 43/16/6
f 43/16/6 3/88/6 23/116/6
f 47/17/6 24/114/6 46/18/6
f 43/16/6 23/116/6 47/17/6
f 9/19/7 7/46/7 1/20/7
s 1
f 6/22/8 3/91/8 8/13/8
s 0
f 18/23/9 15/31/9 12/24/9
f 14/26/51 15/31/51 18/23/51
f 13/28/11 14/26/11 17/27/11
f 19/30/52 12/117/52 13/28/52
f 53/33/13 56/118/13 51/119/13
f 55/120/13 52/121/13 12/24/13
f 53/33/13 51/119/13 55/120/13
f 58/122/13 57/123/13 54/124/13
f 48/125/13 58/122/13 54/124/13
f 44/112/13 41/111/13 48/125/13
f 15/31/13 49/126/13 50/32/13
f 50/32/13 44/112/13 48/125/13
f 48/125/13 54/124/13 53/33/13
f 55/120/13 12/24/13 15/31/13
f 50/32/13 48/125/13 53/33/13
f 53/33/13 55/120/13 15/31/13
f 62/35/53 49/126/53 15/31/53
f 15/31/54 14/26/54 60/127/54
f 15/31/55 60/127/55 63/128/55
f 59/34/56 61/129/56 62/35/56
f 15/31/57 63/128/57 59/34/57
f 14/26/15 13/28/15 64/43/15
f 65/36/15 66/41/15 68/40/15
f 14/26/15 64/43/15 65/36/15
f 71/130/15 60/127/15 14/26/15
f 71/130/15 14/26/15 65/36/15
f 65/36/15 68/40/15 67/131/15
f 67/131/15 30/8/15 36/37/15
f 36/37/15 62/35/15 61/129/15
f 36/37/15 61/129/15 72/132/15
f 65/36/15 67/131/15 36/37/15
f 69/133/15 71/130/15 65/36/15
f 36/37/15 72/132/15 70/38/15
f 70/38/15 69/133/15 65/36/15
f 51/134/58 56/135/58 73/136/58
f 74/39/58 57/137/58 58/138/58
f 66/41/59 51/134/59 73/136/59
f 74/39/60 58/138/60 68/40/60
f 66/41/61 73/136/61 74/39/61
f 13/28/62 12/117/62 52/42/62
f 1/44/63 19/30/63 16/29/63
f 16/29/19 17/27/19 9/19/19
f 17/27/64 18/23/64 7/46/64
f 7/46/21 18/23/21 19/25/21
f 20/50/22 28/139/22 30/48/22
f 30/48/22 67/140/22 48/49/22
f 48/49/22 41/141/22 20/50/22
f 48/49/23 67/140/23 68/51/23
f 50/55/24 37/142/24 35/53/24
f 35/53/24 38/143/24 44/54/24
f 62/58/65 36/144/65 37/56/65
f 37/56/25 50/145/25 49/57/25
f 55/59/26 51/146/26 66/60/26
f 52/62/27 55/59/27 65/61/27
f 34/64/28 33/68/28 43/65/28
f 32/67/29 40/147/29 43/65/29
f 31/69/30 47/148/30 23/70/30
f 24/72/31 47/148/31 31/69/31
f 73/78/34 53/77/34 54/80/34
f 61/87/37 59/93/37 10/15/37
f 2/88/38 63/149/38 60/89/38
f 59/93/39 63/150/39 2/91/39
f 2/91/39 69/151/39 70/92/39
f 70/92/39 10/15/39 59/93/39
f 22/94/40 26/152/40 4/45/40
f 42/98/43 45/153/43 4/21/43
f 4/21/43 26/154/43 25/99/43
