# Blender 4.0.1
# www.blender.org
mtllib Stem2.mtl
o Stem2
v -0.026353 0.263443 0.010834
v -0.031040 -0.014711 0.007816
v 0.023966 0.257705 -0.006598
v 0.018645 -0.014711 0.002589
v -0.024228 0.257448 0.053077
v -0.025813 -0.014711 0.057500
v 0.036822 0.255804 0.046989
v 0.023872 -0.014711 0.052274
v 0.004421 0.151726 0.044025
v -0.047163 0.076047 -0.020657
v 0.008242 0.064853 0.021975
v 0.063573 0.155377 0.076102
v 0.058832 0.149244 0.051046
v 0.010935 0.078557 -0.003255
v 0.011831 0.163293 0.091939
v -0.033620 0.084378 0.035771
vn 0.0806 0.9943 0.0693
vn 0.9561 0.1890 -0.2241
vn 0.2074 0.3816 0.9007
vn -0.0000 -1.0000 -0.0000
vn -0.1220 -0.4094 -0.9042
vn -0.9559 -0.2691 0.1177
vn -0.9808 -0.0762 0.1795
vn -0.8720 0.4824 0.0831
vn 0.1145 -0.1678 -0.9792
vn 0.1777 0.5452 -0.8193
vn 0.2551 0.3011 0.9188
vn 0.0868 -0.5792 0.8105
vn 0.9912 0.1319 -0.0094
vn 0.8687 -0.4835 -0.1082
vt 0.625000 0.500000
vt 0.875000 0.500000
vt 0.875000 0.750000
vt 0.625000 0.750000
vt 0.541667 0.750000
vt 0.625000 1.000000
vt 0.541667 1.000000
vt 0.541667 0.000000
vt 0.625000 0.000000
vt 0.625000 0.250000
vt 0.541667 0.250000
vt 0.125000 0.500000
vt 0.375000 0.500000
vt 0.375000 0.750000
vt 0.125000 0.750000
vt 0.541667 0.500000
vt 0.375000 0.250000
vt 0.458333 0.250000
vt 0.458333 0.500000
vt 0.458333 0.750000
vt 0.375000 0.000000
vt 0.458333 0.000000
vt 0.458333 1.000000
vt 0.375000 1.000000
s 0
usemtl Stem
f 1/1/1 5/2/1 7/3/1 3/4/1
f 13/5/2 3/4/2 7/6/2 12/7/2
f 12/8/3 7/9/3 5/10/3 15/11/3
f 6/12/4 2/13/4 4/14/4 8/15/4
f 9/16/5 1/1/5 3/4/5 13/5/5
f 15/11/6 5/10/6 1/1/6 9/16/6
f 6/17/7 16/18/7 10/19/7 2/13/7
f 16/18/8 15/11/8 9/16/8 10/19/8
f 2/13/9 10/19/9 14/20/9 4/14/9
f 10/19/10 9/16/10 13/5/10 14/20/10
f 8/21/11 11/22/11 16/18/11 6/17/11
f 11/22/12 12/8/12 15/11/12 16/18/12
f 4/14/13 14/20/13 11/23/13 8/24/13
f 14/20/14 13/5/14 12/7/14 11/23/14
