# Blender 4.0.1
# www.blender.org
mtllib Stem3.mtl
o Stem3
v 0.010110 0.222465 -0.440064
v 0.007206 -0.005157 -0.424214
v 0.029282 0.213353 -0.357699
v 0.007206 -0.005157 -0.374255
v -0.067686 0.220427 -0.437314
v -0.042752 -0.005157 -0.424214
v -0.057484 0.210334 -0.346299
v -0.042752 -0.005157 -0.374255
v 0.013515 0.136245 -0.421889
v -0.018301 0.082561 -0.420704
v -0.055956 0.052093 -0.374089
v -0.025068 0.131030 -0.369505
v 0.013515 0.136245 -0.371930
v -0.009351 0.079612 -0.371830
v -0.035405 0.138946 -0.422620
v -0.057470 0.070911 -0.425487
vn -0.0208 0.9933 0.1135
vn 0.1212 -0.2188 0.9682
vn -0.9228 -0.3758 0.0845
vn -0.0000 -1.0000 -0.0000
vn 0.9859 -0.0782 -0.1482
vn -0.0166 -0.1957 -0.9805
vn 0.0502 0.0260 -0.9984
vn 0.0639 -0.0145 -0.9978
vn 0.9677 0.2388 -0.0805
vn 0.8916 -0.4430 -0.0940
vn -0.9785 -0.2051 -0.0235
vn -0.9270 0.3245 0.1881
vn -0.0172 -0.0218 0.9996
vn 0.0173 -0.0399 0.9991
vt 0.625000 0.500000
vt 0.875000 0.500000
vt 0.875000 0.750000
vt 0.625000 0.750000
vt 0.541667 0.750000
vt 0.625000 1.000000
vt 0.541667 1.000000
vt 0.541667 0.000000
vt 0.625000 0.000000
vt 0.625000 0.250000
vt 0.541667 0.250000
vt 0.125000 0.500000
vt 0.375000 0.500000
vt 0.375000 0.750000
vt 0.125000 0.750000
vt 0.541667 0.500000
vt 0.375000 0.250000
vt 0.458333 0.250000
vt 0.458333 0.500000
vt 0.458333 0.750000
vt 0.375000 0.000000
vt 0.458333 0.000000
vt 0.458333 1.000000
vt 0.375000 1.000000
s 0
usemtl Stem
f 1/1/1 5/2/1 7/3/1 3/4/1
f 13/5/2 3/4/2 7/6/2 12/7/2
f 12/8/3 7/9/3 5/10/3 15/11/3
f 6/12/4 2/13/4 4/14/4 8/15/4
f 9/16/5 1/1/5 3/4/5 13/5/5
f 15/11/6 5/10/6 1/1/6 9/16/6
f 6/17/7 16/18/7 10/19/7 2/13/7
f 16/18/8 15/11/8 9/16/8 10/19/8
f 2/13/9 10/19/9 14/20/9 4/14/9
f 10/19/10 9/16/10 13/5/10 14/20/10
f 8/21/11 11/22/11 16/18/11 6/17/11
f 11/22/12 12/8/12 15/11/12 16/18/12
f 4/14/13 14/20/13 11/23/13 8/24/13
f 14/20/14 13/5/14 12/7/14 11/23/14
